<?xml version="1.0" standalone="no"?>
<!DOCTYPE svg PUBLIC "-//W3C//DTD SVG 20010904//EN"
 "http://www.w3.org/TR/2001/REC-SVG-20010904/DTD/svg10.dtd">
<svg version="1.0" xmlns="http://www.w3.org/2000/svg"
 width="1088.000000pt" height="1088.000000pt" viewBox="0 0 1088.000000 1088.000000"
 preserveAspectRatio="xMidYMid meet">
<metadata>
Created by potrace 1.14, written by Peter Selinger 2001-2017
</metadata>
<g transform="translate(0.000000,1088.000000) scale(0.100000,-0.100000)"
fill="#000000" stroke="none">
<path d="M455 9480 c-11 -4 -23 -6 -27 -3 -5 2 -8 -1 -8 -6 0 -6 -9 -11 -20
-11 -11 0 -20 -5 -20 -11 0 -5 -4 -8 -9 -5 -14 9 -106 -84 -129 -130 -11 -22
-24 -62 -29 -90 -4 -27 -8 -348 -7 -714 1 -661 2 -665 24 -723 27 -71 87 -136
158 -171 28 -15 52 -23 52 -20 0 4 6 2 13 -3 8 -7 545 -11 1532 -11 836 0
1526 -1 1533 -1 7 -1 -4 -23 -26 -53 -21 -29 -54 -75 -74 -103 -34 -48 -324
-454 -361 -505 -10 -14 -47 -65 -82 -115 -36 -49 -68 -94 -72 -100 -5 -5 -42
-57 -83 -115 -41 -58 -79 -108 -85 -112 -5 -4 -6 -8 -1 -8 5 0 -1 -8 -12 -19
-12 -10 -22 -21 -22 -25 0 -3 -46 -70 -103 -148 -113 -155 -223 -310 -247
-344 -18 -27 -131 -185 -142 -199 -12 -16 -81 -111 -98 -135 -8 -12 -31 -44
-50 -70 -19 -26 -42 -58 -50 -70 -32 -47 -141 -196 -155 -213 -8 -9 -15 -20
-15 -23 0 -5 -48 -72 -60 -84 -3 -3 -21 -27 -40 -55 -19 -27 -38 -51 -42 -53
-4 -2 -8 -8 -8 -12 0 -5 -38 -62 -85 -127 -105 -145 -109 -150 -167 -232 -26
-36 -51 -70 -55 -76 -5 -5 -33 -45 -63 -88 -30 -42 -77 -108 -105 -146 -27
-38 -57 -79 -65 -91 -8 -12 -43 -60 -77 -106 -34 -46 -59 -84 -56 -84 4 0 0
-6 -9 -12 -8 -7 -41 -51 -73 -98 -33 -47 -62 -87 -65 -90 -3 -3 -33 -43 -65
-90 -33 -47 -65 -92 -72 -100 -11 -14 -114 -158 -145 -204 -7 -10 -19 -24 -26
-32 -6 -7 -12 -16 -12 -19 0 -4 -11 -21 -25 -39 -14 -17 -29 -36 -33 -41 -4
-6 -19 -27 -34 -47 -16 -20 -28 -40 -28 -43 0 -4 -6 -13 -13 -20 -29 -33 -37
-45 -37 -54 0 -5 -4 -11 -8 -13 -19 -7 -217 -296 -234 -341 -10 -26 -18 -49
-18 -52 0 -3 0 -8 -1 -12 -5 -44 0 -1383 6 -1398 18 -55 48 -108 79 -143 43
-47 128 -91 187 -97 24 -2 44 -4 44 -5 0 -5 237 -2 242 3 3 4 14 2 24 -3 11
-6 20 -6 23 -1 4 5 18 6 34 2 15 -4 42 -4 60 0 17 4 32 3 32 -1 0 -5 14 -5 30
0 17 5 30 6 30 2 0 -8 135 -6 156 2 8 3 14 2 14 -2 0 -8 100 -6 108 2 2 3 13
1 23 -4 12 -7 20 -7 24 0 4 6 12 7 23 1 9 -5 26 -5 37 -1 12 5 28 4 35 0 8 -5
22 -4 31 1 12 6 20 5 24 -1 4 -6 11 -8 16 -4 15 9 79 11 79 2 0 -3 14 -3 30 2
17 5 30 5 30 1 0 -4 22 -5 50 -1 27 3 55 3 62 -1 6 -4 20 -3 29 2 12 6 20 5
24 -1 4 -6 11 -8 16 -4 15 9 79 11 79 2 0 -3 14 -3 30 2 17 5 30 6 30 2 0 -8
145 -6 166 2 8 3 14 2 14 -2 0 -8 100 -6 108 2 2 3 13 1 23 -4 12 -7 20 -7 24
0 4 6 13 7 23 1 9 -5 19 -10 22 -12 3 -1 14 3 26 9 12 6 26 7 34 2 8 -5 21 -5
31 0 9 5 19 7 22 4 8 -8 236 -8 244 -1 3 4 14 2 24 -3 11 -6 20 -6 23 -1 4 5
18 6 34 2 15 -4 42 -4 60 0 17 4 32 3 32 -1 0 -5 14 -5 30 0 17 5 30 6 30 2 0
-8 135 -6 156 2 8 3 14 2 14 -2 0 -8 100 -6 108 2 2 3 13 1 23 -4 12 -7 20 -7
24 0 4 6 12 7 23 1 9 -5 26 -5 37 -1 12 5 28 4 35 0 8 -5 22 -4 31 1 12 6 20
5 24 -1 4 -6 11 -8 16 -4 15 9 79 11 79 2 0 -3 13 -3 30 2 17 5 30 5 30 1 0
-4 22 -5 50 -1 27 3 55 3 62 -1 6 -4 20 -3 29 2 12 6 20 5 24 -1 4 -6 11 -8
16 -4 15 9 79 11 79 2 0 -3 13 -3 30 2 16 5 30 6 30 2 0 -8 145 -6 166 2 8 3
14 2 14 -2 0 -8 100 -6 108 2 2 3 13 1 23 -4 12 -7 20 -7 24 0 4 7 14 6 28 -2
12 -6 22 -11 22 -11 0 0 9 5 21 11 12 6 26 7 34 2 8 -5 21 -5 31 0 9 5 19 7
22 4 8 -8 236 -8 244 -1 3 4 14 2 24 -3 11 -6 20 -6 23 -1 4 5 18 6 34 2 15
-4 42 -4 60 0 17 4 32 3 32 -1 0 -5 14 -5 30 0 17 5 30 6 30 2 0 -8 135 -6
156 2 8 3 14 2 14 -2 0 -8 100 -6 108 2 2 3 13 1 23 -4 12 -7 20 -7 24 0 4 6
12 7 23 1 9 -5 26 -5 37 -1 12 5 28 4 35 0 8 -5 22 -4 31 1 12 6 20 5 24 -1 4
-6 11 -8 16 -4 15 9 79 11 79 2 0 -3 13 -3 30 2 17 5 30 5 30 1 0 -4 22 -5 50
-1 27 3 55 3 62 -1 6 -4 20 -3 29 2 12 6 20 5 24 -1 4 -6 11 -8 16 -4 15 9 79
11 79 2 0 -3 13 -3 30 2 17 5 30 6 30 2 0 -8 145 -6 166 2 8 3 14 2 14 -2 0
-8 100 -6 108 2 2 3 13 1 23 -4 12 -7 20 -7 24 0 4 6 12 7 22 1 9 -5 29 -5 45
-1 17 5 28 5 28 -1 0 -6 4 -8 8 -5 5 3 24 8 43 11 105 18 194 78 237 161 39
73 39 79 37 800 -1 385 -4 706 -7 714 -30 94 -89 163 -178 207 l-55 27 -1627
1 c-895 1 -1630 4 -1633 6 -4 5 128 197 201 292 10 13 26 35 34 47 8 13 29 41
45 64 17 23 53 73 80 111 27 39 52 72 55 75 3 3 16 22 30 42 14 21 28 38 33
38 4 0 7 6 7 13 0 7 8 22 18 33 18 19 128 171 147 203 6 9 12 18 15 21 3 3 31
41 63 85 31 44 60 85 64 90 12 15 126 174 138 193 17 27 23 36 53 72 15 19 46
62 67 95 22 33 45 65 51 70 5 6 21 27 35 47 13 21 27 38 32 38 4 0 7 5 7 10 0
6 5 16 10 23 13 14 79 106 265 367 77 107 142 197 145 200 4 3 15 20 25 38 11
17 23 32 27 32 4 0 8 5 8 12 0 6 7 18 15 27 9 9 56 72 105 141 49 69 93 130
97 135 4 6 24 33 43 60 19 28 38 52 42 53 4 2 8 10 8 17 0 7 3 15 8 17 4 2 23
26 41 53 19 28 37 52 40 55 4 3 26 34 51 70 24 36 48 67 52 68 4 2 8 10 8 17
0 7 4 15 8 17 4 2 23 25 42 53 19 27 43 58 53 69 9 11 17 23 17 27 0 4 6 14
13 21 7 7 28 36 47 63 19 28 38 55 43 60 6 8 149 206 234 324 10 14 33 44 51
68 17 24 32 47 32 52 0 5 4 11 8 13 4 2 28 32 52 68 25 36 48 67 51 70 3 3 64
86 134 185 71 99 142 199 159 221 17 23 37 50 44 60 7 11 42 60 78 109 115
159 143 202 161 246 17 41 18 95 18 749 l0 705 -27 55 c-42 86 -99 138 -187
169 -48 18 -159 19 -2863 19 -1547 0 -2822 -4 -2833 -8z m5272 -1053 l0 -422
-28 -40 c-15 -22 -69 -96 -119 -165 -50 -69 -102 -142 -116 -163 -13 -20 -31
-45 -39 -55 -41 -50 -85 -113 -85 -121 0 -5 -4 -11 -8 -13 -4 -1 -23 -25 -42
-53 -19 -27 -38 -52 -41 -55 -3 -3 -27 -36 -53 -73 -25 -38 -53 -75 -61 -83
-7 -8 -17 -23 -20 -34 -3 -11 -10 -20 -15 -20 -5 0 -19 -18 -31 -40 -13 -22
-26 -40 -31 -40 -4 0 -8 -6 -8 -14 0 -8 -4 -16 -8 -18 -5 -1 -23 -25 -42 -53
-18 -27 -37 -52 -40 -55 -3 -3 -31 -41 -61 -84 -30 -44 -61 -88 -69 -97 -30
-35 -40 -48 -40 -53 0 -4 -76 -111 -108 -151 -4 -5 -52 -73 -107 -150 -54 -77
-103 -141 -107 -143 -4 -2 -8 -8 -8 -14 0 -5 -6 -15 -12 -22 -7 -8 -20 -23
-28 -36 -32 -46 -124 -175 -130 -180 -3 -3 -21 -27 -39 -55 -19 -27 -40 -53
-45 -57 -6 -4 -7 -8 -3 -8 5 0 2 -6 -5 -14 -22 -23 -48 -56 -48 -61 0 -4 -86
-124 -108 -150 -5 -6 -17 -24 -28 -40 -10 -17 -21 -32 -24 -35 -3 -3 -28 -36
-55 -75 -27 -38 -53 -74 -58 -80 -7 -9 -153 -213 -209 -293 -13 -18 -29 -39
-35 -47 -7 -7 -13 -18 -13 -23 0 -6 -4 -12 -8 -14 -7 -3 -62 -75 -112 -148
-21 -31 -88 -123 -98 -135 -4 -5 -23 -32 -42 -60 -19 -27 -39 -55 -45 -62 -5
-6 -20 -27 -33 -45 -35 -50 -180 -252 -189 -263 -5 -5 -35 -48 -68 -95 -32
-47 -68 -97 -79 -111 -12 -15 -29 -37 -38 -50 -230 -324 -391 -548 -405 -564
-10 -11 -21 -24 -23 -30 -2 -5 -8 -14 -12 -20 -5 -5 -47 -64 -94 -130 -47 -66
-94 -131 -104 -145 -10 -14 -46 -63 -78 -110 -33 -47 -67 -93 -76 -103 -9 -10
-22 -29 -28 -42 -6 -14 -15 -25 -19 -25 -13 0 -63 -166 -54 -180 2 -3 6 -25
10 -50 4 -24 15 -60 25 -80 24 -46 86 -121 94 -113 3 4 6 2 6 -4 0 -8 57 -38
115 -59 11 -4 817 -8 1790 -9 974 -1 1773 -3 1776 -4 4 0 6 -143 6 -316 l-1
-315 -85 0 c-47 0 -112 0 -143 0 -32 0 -78 -1 -103 -1 -154 0 -331 0 -415 1
-47 1 -91 1 -97 1 -31 -2 -43 -2 -123 -2 -47 0 -92 0 -100 -1 -8 0 -35 0 -60
1 -25 1 -52 1 -60 0 -8 0 -53 0 -100 0 -47 0 -92 0 -100 -1 -8 0 -35 0 -60 1
-25 1 -52 1 -60 0 -8 0 -53 0 -100 0 -47 0 -92 0 -100 -1 -8 0 -35 0 -60 1
-25 1 -52 1 -60 0 -8 0 -71 0 -140 0 -152 1 -288 1 -342 0 -7 0 -62 0 -123 0
-60 1 -150 1 -199 1 -48 0 -92 3 -97 6 -5 3 -9 0 -9 -6 0 -6 -4 -8 -10 -5 -5
3 -76 5 -157 5 -81 0 -174 0 -205 0 -57 0 -136 -1 -160 -1 -7 0 -62 0 -123 0
-60 1 -150 1 -199 1 -48 0 -92 3 -97 6 -5 3 -9 0 -9 -6 0 -6 -4 -8 -10 -5 -5
3 -76 5 -157 5 -81 0 -174 0 -205 0 -32 0 -78 -1 -103 -1 -154 0 -331 0 -415
1 -47 1 -91 1 -97 1 -31 -2 -43 -2 -123 -2 -47 0 -92 0 -100 0 -112 -1 -150 4
-151 19 -7 108 -2 579 6 584 7 5 7 8 0 8 -15 0 -12 253 3 258 7 2 12 8 12 13
0 6 4 15 10 22 44 54 60 76 60 82 0 3 6 12 12 19 7 8 20 24 28 36 14 21 44 62
63 85 4 6 49 69 99 140 51 72 94 132 98 135 3 3 19 25 35 50 16 25 32 47 36
50 3 3 30 41 60 84 30 44 62 88 72 98 9 10 17 22 17 26 0 5 8 17 18 28 9 10
37 48 62 84 24 36 48 70 53 75 27 33 167 230 167 236 0 3 10 17 23 31 12 13
46 60 76 103 30 44 58 82 61 85 3 3 26 34 51 70 24 36 47 67 52 68 4 2 7 8 7
13 0 5 7 17 15 26 8 10 78 106 154 213 77 107 144 200 149 206 5 5 22 30 38
55 16 24 34 49 40 56 6 6 68 91 137 190 70 98 154 215 187 261 33 45 60 86 60
91 0 5 4 11 8 13 5 2 41 48 80 103 39 55 75 105 79 110 5 6 42 57 83 115 41
58 78 107 82 108 5 2 8 8 8 13 0 6 5 15 10 22 12 14 77 103 100 137 8 12 47
65 85 118 39 54 86 119 105 146 53 74 83 117 230 320 74 103 140 195 145 204
6 9 12 19 15 22 17 16 140 192 140 200 0 6 3 10 8 10 4 0 15 12 24 28 10 15
34 50 55 78 132 180 413 574 441 617 78 125 74 262 -12 376 -29 38 -115 103
-127 96 -4 -3 -10 -1 -14 5 -3 5 -17 10 -31 10 -13 0 -24 3 -24 8 0 4 -756 7
-1680 6 -1222 -1 -1680 2 -1681 10 -3 36 -4 584 -1 598 4 16 166 17 2442 16
l2438 0 -1 -421z"/>
<path d="M8689 3686 c-2 -2 -31 -6 -64 -10 -69 -7 -78 -9 -122 -26 -18 -6 -33
-16 -33 -21 0 -5 -6 -9 -13 -9 -20 0 -86 -79 -109 -130 -11 -25 -20 -66 -21
-92 -1 -27 -6 -48 -10 -48 -4 0 -3 -8 2 -18 7 -13 7 -22 0 -29 -8 -8 -7 -13 0
-17 8 -5 8 -13 1 -27 -8 -13 -7 -19 0 -19 8 0 8 -6 0 -20 -8 -14 -8 -20 0 -20
8 0 8 -6 0 -20 -8 -14 -8 -20 0 -20 8 0 8 -6 0 -20 -8 -14 -8 -20 0 -20 8 0 8
-6 0 -20 -8 -14 -8 -20 0 -20 8 0 8 -6 0 -20 -8 -14 -8 -20 0 -20 8 0 8 -6 0
-20 -8 -14 -8 -20 0 -20 8 0 8 -6 0 -20 -8 -14 -8 -20 0 -20 8 0 8 -6 0 -20
-8 -14 -8 -20 0 -20 8 0 8 -6 0 -20 -8 -14 -8 -20 0 -20 8 0 8 -6 0 -20 -8
-14 -8 -20 0 -20 8 0 8 -6 0 -20 -8 -14 -8 -20 0 -20 8 0 8 -6 0 -20 -8 -14
-8 -20 0 -20 8 0 8 -6 0 -20 -8 -14 -8 -20 0 -20 8 0 8 -6 0 -20 -8 -14 -8
-20 0 -20 8 0 8 -6 0 -20 -8 -14 -8 -20 0 -20 8 0 8 -6 0 -20 -8 -14 -8 -20 0
-20 6 0 8 -5 4 -11 -10 -17 -11 -51 -2 -76 4 -14 4 -23 -2 -23 -6 0 -6 -9 0
-25 5 -14 6 -25 2 -25 -9 0 -7 -53 2 -69 4 -5 2 -12 -3 -16 -7 -4 -7 -15 -1
-30 5 -14 6 -25 2 -25 -4 0 -7 -24 -7 -54 0 -30 3 -52 7 -49 5 2 4 -6 -1 -19
-5 -14 -5 -31 0 -40 6 -10 6 -19 0 -23 -7 -4 -7 -15 -1 -30 5 -14 6 -25 2 -25
-4 0 -7 -24 -7 -54 0 -30 3 -52 7 -49 5 2 4 -6 -1 -19 -5 -14 -5 -31 0 -40 6
-10 6 -19 0 -23 -7 -4 -7 -15 -1 -30 5 -14 6 -25 2 -25 -4 0 -7 -24 -7 -54 0
-30 3 -52 7 -49 5 2 4 -6 -1 -19 -5 -14 -5 -31 0 -40 6 -10 6 -19 0 -23 -7 -4
-7 -15 -1 -30 5 -14 6 -25 2 -25 -8 0 -7 -85 2 -173 16 -157 137 -271 300
-284 39 -2 72 -6 74 -8 2 -2 17 1 33 5 16 5 29 6 29 2 0 -8 100 -5 108 2 2 3
13 1 23 -4 12 -7 20 -7 24 0 4 6 12 7 23 1 9 -5 26 -5 37 -1 12 5 28 4 35 0 8
-5 22 -4 31 1 12 6 20 5 24 -1 4 -6 11 -8 16 -4 15 9 79 11 79 2 0 -3 14 -3
30 2 17 5 30 5 30 1 0 -4 22 -5 50 -1 27 3 55 3 62 -1 6 -4 20 -3 29 2 12 6
20 5 24 -1 4 -6 11 -8 16 -4 15 9 79 11 79 2 0 -3 14 -3 30 2 17 5 30 6 30 2
0 -8 145 -6 166 2 8 3 14 2 14 -2 0 -8 100 -6 108 2 2 3 13 1 23 -4 12 -7 20
-7 24 0 4 6 13 7 23 1 9 -5 19 -10 22 -12 3 -1 14 3 26 9 12 6 26 7 34 2 8 -5
21 -5 31 0 9 5 19 7 22 4 8 -8 236 -8 244 -1 3 4 14 2 24 -3 11 -6 20 -6 23
-1 4 5 18 6 34 2 15 -4 42 -4 60 0 17 4 32 3 32 -1 0 -5 14 -5 30 0 19 5 30 5
30 -1 0 -6 4 -8 8 -5 5 3 26 6 48 7 117 5 227 74 281 179 l28 55 0 1045 0
1045 -22 45 c-64 127 -159 186 -308 189 -22 1 -49 1 -60 2 -22 0 -20 0 -91 -2
-28 -1 -55 1 -60 4 -6 3 -16 2 -24 -3 -7 -4 -24 -4 -36 0 -14 6 -26 5 -29 0
-3 -5 -18 -5 -35 0 -19 5 -30 5 -30 -1 0 -6 -5 -7 -10 -4 -6 4 -41 6 -78 6
-37 -1 -76 -1 -87 -1 -11 1 -27 1 -35 1 -72 -3 -112 -2 -117 2 -3 3 -16 2 -29
-3 -13 -5 -26 -6 -29 0 -3 5 -18 5 -34 0 -15 -4 -34 -4 -42 0 -7 5 -20 5 -29
0 -9 -5 -22 -5 -28 -1 -7 4 -35 5 -62 1 -27 -4 -55 -3 -62 1 -6 4 -19 4 -28
-1 -9 -5 -22 -5 -30 0 -8 5 -21 5 -30 0 -9 -5 -22 -5 -30 0 -7 4 -23 5 -34 1
-12 -4 -32 -5 -46 -1 -14 3 -44 3 -67 0 -23 -4 -48 -3 -55 1 -6 4 -19 4 -28
-1 -9 -5 -22 -5 -30 0 -8 5 -21 5 -30 0 -9 -5 -22 -5 -30 0 -7 4 -23 5 -34 1
-12 -4 -32 -5 -46 -1 -14 3 -38 3 -55 0 -16 -3 -41 -3 -55 0 -14 4 -35 3 -47
-1 -12 -5 -25 -4 -28 1 -3 5 -18 5 -35 0 -17 -5 -32 -5 -35 0 -3 6 -15 6 -29
0 -14 -5 -27 -5 -33 1 -5 5 -11 8 -14 5z"/>
</g>
</svg>
