<svg width="30" height="30" fill="none" xmlns="http://www.w3.org/2000/svg"><path d="M15 30c8.284 0 15-6.716 15-15 0-8.284-6.716-15-15-15C6.716 0 0 6.716 0 15c0 8.284 6.716 15 15 15z" fill="#000"/><path d="M20.378 12.391c-4.333 0-4.339 4.316-4.339 4.339 0 0-.296 4.321 4.338 4.321 0 0 3.866.22 3.866-3.008h-1.985s.066 1.215-1.814 1.215c0 0-1.985.133-1.985-1.962h5.85s.643-4.905-3.931-4.905zm-1.942 3.392s.242-1.737 1.986-1.737c1.748 0 1.72 1.737 1.72 1.737h-3.706zm-4.959-1.11s1.721-.127 1.721-2.15c0-2.018-1.407-3.007-3.194-3.007H6.126v11.298h5.877s3.59.11 3.59-3.337c.001 0 .155-2.804-2.116-2.804zm-4.761-3.15h3.288s.797 0 .797 1.176-.467 1.347-1 1.347H8.715v-2.524zm3.123 7.285H8.716v-3.025h3.288s1.193-.01 1.187 1.556c0 1.32-.885 1.458-1.352 1.469zm6.108-8.627v1.391h4.663v-1.391h-4.663z" fill="#fff"/></svg>