<svg width="30" height="30" fill="none" xmlns="http://www.w3.org/2000/svg"><circle cx="15" cy="15" r="15" fill="#000"/><path d="M18.375 6h-6.75A5.626 5.626 0 006 11.625v6.75A5.626 5.626 0 0011.625 24h6.75A5.626 5.626 0 0024 18.375v-6.75A5.626 5.626 0 0018.375 6zm3.938 12.375a3.942 3.942 0 01-3.938 3.938h-6.75a3.942 3.942 0 01-3.938-3.938v-6.75a3.942 3.942 0 013.938-3.938h6.75a3.942 3.942 0 013.938 3.938v6.75z" fill="#fff"/><path d="M15 10.5a4.5 4.5 0 100 9 4.5 4.5 0 000-9zm0 7.313A2.816 2.816 0 0112.187 15 2.816 2.816 0 0115 12.187 2.816 2.816 0 0117.813 15 2.816 2.816 0 0115 17.813zm4.837-7.051a.6.6 0 100-1.2.6.6 0 000 1.2z" fill="#fff"/></svg>