<svg width="30" height="30" fill="none" xmlns="http://www.w3.org/2000/svg"><g clip-path="url(#clip0)"><path d="M15 29.999c8.284 0 15-6.716 15-15 0-8.284-6.716-15-15-15-8.284 0-15 6.716-15 15 0 8.284 6.716 15 15 15z" fill="#000"/><path d="M23.962 16.207v6.184h-3.585v-5.77c0-1.448-.518-2.438-1.816-2.438-.99 0-1.58.666-1.839 1.311-.094.23-.119.55-.119.874v6.023h-3.585s.048-9.772 0-10.784h3.585v1.528c-.007.012-.017.024-.023.036h.024v-.036c.476-.733 1.326-1.781 3.23-1.781 2.36 0 4.128 1.541 4.128 4.853zM9.267 6.409c-1.227 0-2.03.805-2.03 1.863 0 1.035.78 1.864 1.983 1.864h.023c1.25 0 2.028-.829 2.028-1.864-.024-1.058-.778-1.863-2.004-1.863zM7.45 22.391h3.584V11.607H7.451v10.784z" fill="#fff"/></g><defs><clipPath id="clip0"><path fill="#fff" d="M0 0h30v30H0z"/></clipPath></defs></svg>