<svg width="34" height="29" fill="none" xmlns="http://www.w3.org/2000/svg"><path d="M19.18 23.01h1a1 1 0 00-1-1v1zm0 3.99v1a1 1 0 001-1h-1zM1.365 27h-1a1 1 0 001 1v-1zm0-3.99l-.813-.583a1 1 0 00-.187.583h1zm11.62-16.205l.813.583a1 1 0 00-.813-1.583v1zm-11.34 0h-1a1 1 0 001 1v-1zm0-3.955v-1a1 1 0 00-1 1h1zm17.255 0h1a1 1 0 00-1-1v1zm0 3.955l.812.584a1 1 0 00.188-.584h-1zM7.245 23.01l-.812-.584a1 1 0 00.812 1.584v-1zm10.935 0V27h2v-3.99h-2zm1 2.99H1.365v2H19.18v-2zM2.365 27v-3.99h-2V27h2zm-.187-3.407l11.62-16.205-1.626-1.166L.552 22.427l1.626 1.166zM12.985 5.805H1.645v2h11.34v-2zm-10.34 1V2.85h-2v3.955h2zm-1-2.955H18.9v-2H1.645v2zm16.255-1v3.955h2V2.85h-2zm.188 3.371L6.433 22.426l1.624 1.168L19.712 7.389 18.088 6.22zM7.245 24.01H19.18v-2H7.245v2z" fill="#000"/><rect x="26" y="20" width="8" height="8" rx="1" fill="#000"/></svg>