<svg width="34" height="34" fill="none" xmlns="http://www.w3.org/2000/svg"><path d="M17 0C10.75 0 5.667 5.082 5.667 11.328v11.345C5.667 28.919 10.75 34 17 34s11.333-5.081 11.333-11.327V11.328C28.333 5.082 23.25 0 17 0zm10.074 22.673c0 5.551-4.52 10.068-10.074 10.068-5.555 0-10.074-4.517-10.074-10.068V11.328c0-5.552 4.52-10.069 10.074-10.069 5.555 0 10.074 4.517 10.074 10.069v11.345z" fill="#000"/><path d="M17 3.778a.63.63 0 00-.63.63v5.701a.63.63 0 101.26 0V4.407a.63.63 0 00-.63-.63z" fill="#000"/></svg>