<svg width="24" height="29" fill="none" xmlns="http://www.w3.org/2000/svg"><g clip-path="url(#clip0)" fill="#000"><path d="M19.383 6.793a7.509 7.509 0 00-14.728-.005 5.256 5.256 0 00.605 10.478h3.755a.75.75 0 100-1.502H5.26a3.755 3.755 0 01.045-7.509.75.75 0 00.746-.668 6.007 6.007 0 0111.935 0c.063.387.398.67.79.668a3.754 3.754 0 110 7.51h-3.754a.75.75 0 000 1.501h3.755a5.256 5.256 0 00.605-10.473z"/><path d="M13 21.39v-9.625c0-.423-.358-.765-.8-.765-.44 0-.799.342-.799.765v9.624L9.375 19.45a.825.825 0 00-1.131-.019.741.741 0 000 1.1l3.39 3.244a.823.823 0 001.132 0c.318-.293-.306-.304 0 0 0 0 .234-.342.234-2.386z"/></g><defs><clipPath id="clip0"><path fill="#fff" d="M0 0h24v29H0z"/></clipPath></defs></svg>