<svg width="24" height="29" fill="none" xmlns="http://www.w3.org/2000/svg"><g clip-path="url(#clip0)" fill="#000"><path d="M19.383 6.793a7.509 7.509 0 00-14.728-.005 5.256 5.256 0 00.605 10.478h3.755a.75.75 0 100-1.502H5.26a3.755 3.755 0 01.045-7.509.75.75 0 00.746-.668 6.007 6.007 0 0111.935 0c.063.387.398.67.79.668a3.754 3.754 0 110 7.51h-3.754a.75.75 0 000 1.501h3.755a5.256 5.256 0 00.605-10.473z"/><path d="M13 25.385V12.059c0-.585-.358-1.059-.8-1.059-.44 0-.799.474-.799 1.059v13.326L9.375 22.7c-.307-.42-.813-.433-1.131-.026-.318.406-.326 1.076-.02 1.497l.02.026 3.39 4.492a.83.83 0 00.259.228c.197.11.419.11.615 0a.827.827 0 00.259-.228c.317-.407-.307-.421 0 0 0 0 .233-.474.233-3.304z"/></g><defs><clipPath id="clip0"><path fill="#fff" d="M0 0h24v29H0z"/></clipPath></defs></svg>