<svg width="105" height="17" fill="none" xmlns="http://www.w3.org/2000/svg"><path d="M8.5 0l1.908 5.873h6.176l-4.996 3.63 1.908 5.874-4.996-3.63-4.996 3.63 1.908-5.874-4.996-3.63h6.176L8.5 0zm22 0l1.908 5.873h6.176l-4.996 3.63 1.908 5.874-4.996-3.63-4.996 3.63 1.908-5.874-4.996-3.63h6.176L30.5 0zm22 0l1.908 5.873h6.176l-4.996 3.63 1.908 5.874-4.996-3.63-4.996 3.63 1.908-5.874-4.996-3.63h6.176L52.5 0zm22 0l1.908 5.873h6.176l-4.996 3.63 1.908 5.874-4.996-3.63-4.996 3.63 1.908-5.874-4.996-3.63h6.176L74.5 0z" fill="#FFCA00"/><path d="M96.5 0l1.908 5.873h6.176l-4.996 3.63 1.908 5.874-4.996-3.63-4.996 3.63 1.908-5.874-4.996-3.63h6.176L96.5 0z" fill="#A9A9A9"/><path d="M96.5 0l1.908 5.873h6.176l-4.996 3.63 1.908 5.874-4.996-3.63-4.996 3.63 1.908-5.874-4.996-3.63h6.176L96.5 0z" fill="#FFCA00"/></svg>