<svg width="30" height="30" fill="none" xmlns="http://www.w3.org/2000/svg"><path d="M15 .625c-8.287 0-15 6.6-15 14.74 0 6.513 4.298 12.037 10.256 13.985.75.138 1.025-.318 1.025-.709 0-.35-.012-1.277-.019-2.506-4.172.888-5.052-1.978-5.052-1.978-.683-1.701-1.669-2.156-1.669-2.156-1.359-.914.105-.895.105-.895 1.506.102 2.298 1.519 2.298 1.519 1.337 2.253 3.511 1.602 4.369 1.226.134-.954.52-1.602.95-1.971-3.332-.369-6.833-1.636-6.833-7.284 0-1.609.581-2.924 1.544-3.955-.169-.373-.675-1.871.131-3.901 0 0 1.256-.395 4.125 1.511 1.2-.327 2.475-.49 3.75-.497 1.275.007 2.55.17 3.75.497 2.85-1.906 4.106-1.511 4.106-1.511.806 2.03.3 3.528.15 3.901.956 1.031 1.538 2.346 1.538 3.955 0 5.663-3.507 6.909-6.844 7.271.525.443 1.012 1.346 1.012 2.728 0 1.972-.018 3.557-.018 4.036 0 .386.262.848 1.031.7C25.706 27.396 30 21.869 30 15.365c0-8.14-6.716-14.74-15-14.74z" fill="#000"/></svg>