<svg width="30" height="30" viewBox="0 0 30 30" fill="none" xmlns="http://www.w3.org/2000/svg">
<circle cx="15" cy="15" r="15" fill="black"/>
<path d="M18.375 6H11.625C8.51888 6 6 8.51888 6 11.625V18.375C6 21.4811 8.51888 24 11.625 24H18.375C21.4811 24 24 21.4811 24 18.375V11.625C24 8.51888 21.4811 6 18.375 6ZM22.3125 18.375C22.3125 20.5463 20.5463 22.3125 18.375 22.3125H11.625C9.45375 22.3125 7.6875 20.5463 7.6875 18.375V11.625C7.6875 9.45375 9.45375 7.6875 11.625 7.6875H18.375C20.5463 7.6875 22.3125 9.45375 22.3125 11.625V18.375Z" fill="white"/>
<path d="M15 10.5C12.5149 10.5 10.5 12.5149 10.5 15C10.5 17.4851 12.5149 19.5 15 19.5C17.4851 19.5 19.5 17.4851 19.5 15C19.5 12.5149 17.4851 10.5 15 10.5ZM15 17.8125C13.4497 17.8125 12.1875 16.5503 12.1875 15C12.1875 13.4486 13.4497 12.1875 15 12.1875C16.5503 12.1875 17.8125 13.4486 17.8125 15C17.8125 16.5503 16.5503 17.8125 15 17.8125Z" fill="white"/>
<path d="M19.8375 10.7622C20.1686 10.7622 20.4371 10.4937 20.4371 10.1625C20.4371 9.83139 20.1686 9.56293 19.8375 9.56293C19.5063 9.56293 19.2379 9.83139 19.2379 10.1625C19.2379 10.4937 19.5063 10.7622 19.8375 10.7622Z" fill="white"/>
</svg>
