<svg width="34" height="29" viewBox="0 0 34 29" fill="none" xmlns="http://www.w3.org/2000/svg">
<path d="M19.18 23.01H20.18C20.18 22.4577 19.7323 22.01 19.18 22.01V23.01ZM19.18 27V28C19.7323 28 20.18 27.5523 20.18 27H19.18ZM1.365 27H0.365C0.365 27.5523 0.812715 28 1.365 28V27ZM1.365 23.01L0.552335 22.4273C0.430515 22.5972 0.365 22.8009 0.365 23.01H1.365ZM12.985 6.805L13.7977 7.38773C14.0161 7.08305 14.0458 6.68176 13.8746 6.34823C13.7033 6.01471 13.3599 5.805 12.985 5.805V6.805ZM1.645 6.805H0.645C0.645 7.35728 1.09272 7.805 1.645 7.805V6.805ZM1.645 2.85V1.85C1.09272 1.85 0.645 2.29771 0.645 2.85H1.645ZM18.9 2.85H19.9C19.9 2.29771 19.4523 1.85 18.9 1.85V2.85ZM18.9 6.805L19.7118 7.38889C19.8342 7.21878 19.9 7.01454 19.9 6.805H18.9ZM7.245 23.01L6.43317 22.4261C6.21411 22.7307 6.18396 23.1323 6.35509 23.4661C6.52622 23.8 6.86983 24.01 7.245 24.01V23.01ZM18.18 23.01V27H20.18V23.01H18.18ZM19.18 26H1.365V28H19.18V26ZM2.365 27V23.01H0.365V27H2.365ZM2.17766 23.5927L13.7977 7.38773L12.1723 6.22227L0.552335 22.4273L2.17766 23.5927ZM12.985 5.805H1.645V7.805H12.985V5.805ZM2.645 6.805V2.85H0.645V6.805H2.645ZM1.645 3.85H18.9V1.85H1.645V3.85ZM17.9 2.85V6.805H19.9V2.85H17.9ZM18.0882 6.22111L6.43317 22.4261L8.05683 23.5939L19.7118 7.38889L18.0882 6.22111ZM7.245 24.01H19.18V22.01H7.245V24.01Z" fill="black"/>
<rect x="26" y="20" width="8" height="8" rx="1" fill="black"/>
</svg>
