<svg width="34" height="34" viewBox="0 0 34 34" fill="none" xmlns="http://www.w3.org/2000/svg">
<path d="M17 0C10.7506 0 5.66666 5.08189 5.66666 11.3278V22.6728C5.66666 28.9186 10.7506 34 17 34C23.2493 34 28.3333 28.9188 28.3333 22.6728V11.3278C28.3333 5.08189 23.2492 0 17 0ZM27.0741 22.6728C27.0741 28.2244 22.5548 32.7408 17 32.7408C11.4451 32.7408 6.9259 28.2244 6.9259 22.6728V11.3278C6.9259 5.77622 11.4451 1.25924 17 1.25924C22.5548 1.25924 27.0741 5.77606 27.0741 11.3278V22.6728Z" fill="black"/>
<path d="M17 3.77774C16.6523 3.77774 16.3703 4.05939 16.3703 4.40744V10.1092C16.3703 10.4572 16.6523 10.7389 17 10.7389C17.3477 10.7389 17.6297 10.4572 17.6297 10.1092V4.40744C17.6295 4.05939 17.3477 3.77774 17 3.77774Z" fill="black"/>
</svg>
