<svg width="24" height="29" viewBox="0 0 24 29" fill="none" xmlns="http://www.w3.org/2000/svg">
<g clip-path="url(#clip0)">
<path d="M19.3825 6.79265C18.5719 2.72551 14.6177 0.0856795 10.5506 0.896288C7.57584 1.48918 5.24985 3.81371 4.65513 6.78807C1.7714 7.12041 -0.297143 9.72747 0.0350106 12.6114C0.340797 15.2655 2.58878 17.2679 5.26047 17.2661H9.01487C9.4296 17.2661 9.76578 16.9299 9.76578 16.5152C9.76578 16.1005 9.4296 15.7643 9.01487 15.7643H5.26047C3.18681 15.752 1.51597 14.0612 1.52805 11.9877C1.54032 9.91405 3.23112 8.24303 5.30479 8.2553C5.68748 8.2553 6.00901 7.96746 6.05112 7.58696C6.43235 4.29143 9.41312 1.92882 12.7088 2.31004C15.4796 2.63048 17.6653 4.81621 17.9858 7.58696C18.0487 7.97423 18.3842 8.25786 18.7764 8.2553C20.8501 8.2553 22.531 9.93621 22.531 12.0099C22.531 14.0834 20.8501 15.7643 18.7764 15.7643H15.022C14.6073 15.7643 14.2711 16.1005 14.2711 16.5152C14.2711 16.9299 14.6073 17.2661 15.022 17.2661H18.7766C21.6794 17.248 24.018 14.8801 24 11.9773C23.9836 9.33379 22.0064 7.11382 19.3825 6.79265V6.79265Z" fill="black"/>
<path d="M13 25.385V12.0589C13 11.474 12.6421 11 12.2007 11C11.7592 11 11.4012 11.474 11.4012 12.0589V25.385L9.37455 22.7C9.0679 22.2792 8.56162 22.2675 8.24405 22.6739C7.92648 23.0801 7.91771 23.7504 8.22436 24.1709C8.23099 24.18 8.23742 24.1885 8.24405 24.197L11.6346 28.6886C11.7087 28.7864 11.7964 28.8641 11.8929 28.9173C12.0896 29.0276 12.3116 29.0276 12.5085 28.9173C12.605 28.8641 12.6928 28.7864 12.7666 28.6886C13.0842 28.2824 12.4598 28.268 12.7666 28.6886C12.7666 28.6886 13 28.2153 13 25.385Z" fill="black"/>
</g>
<defs>
<clipPath id="clip0">
<rect width="24" height="29" fill="white"/>
</clipPath>
</defs>
</svg>
