<svg width="105" height="17" viewBox="0 0 105 17" fill="none" xmlns="http://www.w3.org/2000/svg">
<path d="M8.5 0L10.4084 5.87336L16.584 5.87336L11.5878 9.50329L13.4962 15.3766L8.5 11.7467L3.50383 15.3766L5.41219 9.50329L0.416019 5.87336L6.59163 5.87336L8.5 0Z" fill="#FFCA00"/>
<path d="M30.5 0L32.4084 5.87336L38.584 5.87336L33.5878 9.50329L35.4962 15.3766L30.5 11.7467L25.5038 15.3766L27.4122 9.50329L22.416 5.87336L28.5916 5.87336L30.5 0Z" fill="#FFCA00"/>
<path d="M52.5 0L54.4084 5.87336L60.584 5.87336L55.5878 9.50329L57.4962 15.3766L52.5 11.7467L47.5038 15.3766L49.4122 9.50329L44.416 5.87336L50.5916 5.87336L52.5 0Z" fill="#FFCA00"/>
<path d="M74.5 0L76.4084 5.87336L82.584 5.87336L77.5878 9.50329L79.4962 15.3766L74.5 11.7467L69.5038 15.3766L71.4122 9.50329L66.416 5.87336L72.5916 5.87336L74.5 0Z" fill="#FFCA00"/>
<path d="M96.5 0L98.4084 5.87336L104.584 5.87336L99.5878 9.50329L101.496 15.3766L96.5 11.7467L91.5038 15.3766L93.4122 9.50329L88.416 5.87336L94.5916 5.87336L96.5 0Z" fill="#A9A9A9"/>
</svg>
