<svg width="30" height="30" viewBox="0 0 30 30" fill="none" xmlns="http://www.w3.org/2000/svg">
<path d="M15 0.624756C6.7125 0.624756 0 7.22476 0 15.3648C0 21.8785 4.2975 27.4023 10.2563 29.3498C11.0063 29.4885 11.2812 29.0323 11.2812 28.641C11.2812 28.291 11.2688 27.3635 11.2625 26.1348C7.09 27.0235 6.21 24.1573 6.21 24.1573C5.5275 22.456 4.54125 22.001 4.54125 22.001C3.1825 21.0873 4.64625 21.106 4.64625 21.106C6.1525 21.2085 6.94375 22.6248 6.94375 22.6248C8.28125 24.8785 10.455 24.2273 11.3125 23.851C11.4475 22.8973 11.8338 22.2485 12.2625 21.8798C8.93125 21.511 5.43 20.2435 5.43 14.596C5.43 12.9873 6.01125 11.6723 6.97375 10.641C6.805 10.2685 6.29875 8.76976 7.105 6.73976C7.105 6.73976 8.36125 6.34476 11.23 8.25101C12.43 7.92351 13.705 7.76101 14.98 7.75351C16.255 7.76101 17.53 7.92351 18.73 8.25101C21.58 6.34476 22.8362 6.73976 22.8362 6.73976C23.6425 8.76976 23.1362 10.2685 22.9862 10.641C23.9425 11.6723 24.5238 12.9873 24.5238 14.596C24.5238 20.2585 21.0175 21.5048 17.68 21.8673C18.205 22.3098 18.6925 23.2135 18.6925 24.5948C18.6925 26.5673 18.6737 28.1523 18.6737 28.631C18.6737 29.0173 18.9363 29.4785 19.705 29.331C25.7062 27.396 30 21.8685 30 15.3648C30 7.22476 23.2838 0.624756 15 0.624756Z" fill="black"/>
</svg>
